<svg xmlns="http://www.w3.org/2000/svg" width="12" height="13" viewBox="0 0 12 13">
  <path fill="#253249" d="M204.857144,207.857144 L214.285727,207.857144 L214.285727,200.999993 L204.857144,200.999993 L204.857144,207.857144 Z M207.428576,199.714277 L207.428576,197.785703 C207.428576,197.665167 207.334825,197.571417 207.21429,197.571417 L206.785718,197.571417 C206.665182,197.571417 206.571432,197.665167 206.571432,197.785703 L206.571432,199.714277 C206.571432,199.834813 206.665182,199.928563 206.785718,199.928563 L207.21429,199.928563 C207.334825,199.928563 207.428576,199.834813 207.428576,199.714277 Z M212.571439,199.714277 L212.571439,197.785703 C212.571439,197.665167 212.477689,197.571417 212.357153,197.571417 L211.928581,197.571417 C211.808045,197.571417 211.714295,197.665167 211.714295,197.785703 L211.714295,199.714277 C211.714295,199.834813 211.808045,199.928563 211.928581,199.928563 L212.357153,199.928563 C212.477689,199.928563 212.571439,199.834813 212.571439,199.714277 Z M215.14287,199.285705 L215.14287,207.857144 C215.14287,208.325894 214.754477,208.714288 214.285727,208.714288 L204.857144,208.714288 C204.388393,208.714288 204,208.325894 204,207.857144 L204,199.285705 C204,198.816955 204.388393,198.428561 204.857144,198.428561 L205.714288,198.428561 L205.714288,197.785703 C205.714288,197.196417 206.196431,196.714273 206.785718,196.714273 L207.21429,196.714273 C207.803576,196.714273 208.285719,197.196417 208.285719,197.785703 L208.285719,198.428561 L210.857151,198.428561 L210.857151,197.785703 C210.857151,197.196417 211.339294,196.714273 211.928581,196.714273 L212.357153,196.714273 C212.946439,196.714273 213.428583,197.196417 213.428583,197.785703 L213.428583,198.428561 L214.285727,198.428561 C214.754477,198.428561 215.14287,198.816955 215.14287,199.285705 Z" transform="translate(-204 -196)"/>
</svg>
